<svg id="Capa_1" data-name="Capa 1" xmlns="http://www.w3.org/2000/svg" viewBox="0 0 202.01 260.98">
  <defs>
    <style>
      .cls-1 {
        fill: #fff;
        stroke: #1d1d1b;
        stroke-width: 0.25px;
      }

      .cls-1, .cls-3, .cls-4 {
        stroke-miterlimit: 10;
      }

      .cls-2 {
        fill: #05f;
      }

      .cls-3 {
        fill: #32e020;
        stroke-width: 10px;
      }

      .cls-3, .cls-4 {
        stroke: #fff;
      }

      .cls-4 {
        fill: none;
        stroke-width: 6px;
      }
    </style>
  </defs>
  <path class="cls-1" d="M296,84.74" transform="translate(-137.94 -116.29)"/>
  <path class="cls-2" d="M310.32,377.27H201.68a29.62,29.62,0,0,1-29.62-29.62V178.35a29.62,29.62,0,0,1,29.62-29.62h79.56a29.61,29.61,0,0,1,21.63,9.39L332,189.21a29.6,29.6,0,0,1,8,20.24v138.2A29.62,29.62,0,0,1,310.32,377.27Z" transform="translate(-137.94 -116.29)"/>
  <circle class="cls-3" cx="42.16" cy="42.16" r="37.16"/>
  <line class="cls-4" x1="42.16" y1="20.71" x2="42.16" y2="64.03"/>
  <line class="cls-4" x1="20.92" y1="41.69" x2="64.24" y2="41.69"/>
</svg>
